name Walk7.mot
datacolumns 19
datarows 17
range 2.58000000 2.66000000
endheader

                time	   L_ground_force_vx	   L_ground_force_vy	   L_ground_force_vz	   L_ground_force_px	   L_ground_force_py	   L_ground_force_pz	   R_ground_force_vx	   R_ground_force_vy	   R_ground_force_vz	   R_ground_force_px	   R_ground_force_py	   R_ground_force_pz	   L_ground_torque_x	   L_ground_torque_y	   L_ground_torque_z	   R_ground_torque_x	   R_ground_torque_y	   R_ground_torque_z	
          2.58000000	          5.96019205	         12.92020282	         -1.18162838	          0.22670526	          0.00000000	          0.08289397	          0.00000000	          0.00000000	         -0.00000000	          0.00000000	          0.00000000	         -0.00000000	          0.00000000	         -0.02655997	          0.00000000	          0.00000000	         -0.00000000	          0.00000000	
          2.58500000	          1.60496739	          2.58536021	         -1.02768206	          0.16854663	          0.00000000	          0.06219261	          0.00000000	          0.00000000	          0.00000000	         -0.00000000	          0.00000000	          0.00000000	          0.00000000	         -0.00525277	          0.00000000	          0.00000000	         -0.00000000	          0.00000000	
          2.59000000	         -1.31488733	         -4.24664487	         -0.84768204	          0.11792062	          0.00000000	          0.04399855	          0.00000000	          0.00000000	          0.00000000	         -0.00000000	          0.00000000	          0.00000000	          0.00000000	          0.00882656	          0.00000000	          0.00000000	         -0.00000000	          0.00000000	
          2.59500000	         -3.08334191	         -8.29201913	         -0.66521011	          0.07612904	          0.00000000	          0.02885129	          0.00000000	          0.00000000	          0.00000000	         -0.00000000	          0.00000000	          0.00000000	          0.00000000	          0.01715729	          0.00000000	          0.00000000	         -0.00000000	          0.00000000	
          2.60000000	         -3.97356251	        -10.23044082	         -0.49558433	          0.04330803	          0.00000000	          0.01685587	          0.00000000	          0.00000000	          0.00000000	         -0.00000000	          0.00000000	          0.00000000	          0.00000000	          0.02114269	          0.00000000	          0.00000000	         -0.00000000	          0.00000000	
          2.60500000	         -4.23018299	        -10.66440892	         -0.34761187	          0.01883541	          0.00000000	          0.00783033	          0.00000000	          0.00000000	          0.00000000	         -0.00000000	          0.00000000	          0.00000000	          0.00000000	          0.02202632	          0.00000000	          0.00000000	         -0.00000000	          0.00000000	
          2.61000000	         -4.06019240	        -10.09927847	         -0.22522810	          0.00165194	          0.00000000	          0.00142315	          0.00000000	          0.00000000	          0.00000000	         -0.00000000	          0.00000000	          0.00000000	          0.00000000	          0.02085095	          0.00000000	          0.00000000	         -0.00000000	          0.00000000	
          2.61500000	         -3.63006861	         -8.93814044	         -0.12893294	         -0.00949814	          0.00000000	         -0.00279821	          0.00000000	          0.00000000	          0.00000000	         -0.00000000	          0.00000000	          0.00000000	          0.00000000	          0.01844816	          0.00000000	          0.00000000	         -0.00000000	          0.00000000	
          2.62000000	         -3.06714402	         -7.48662628	         -0.05698368	         -0.01589728	          0.00000000	         -0.00528398	          0.00000000	          0.00000000	          0.00000000	         -0.00000000	          0.00000000	          0.00000000	          0.00000000	          0.01544827	          0.00000000	          0.00000000	         -0.00000000	          0.00000000	
          2.62500000	         -2.46357737	         -5.96369675	         -0.00633730	         -0.01874364	          0.00000000	         -0.00646015	          0.00000000	          0.00000000	          0.00000000	         -0.00000000	          0.00000000	          0.00000000	          0.00000000	          0.01230272	          0.00000000	          0.00000000	         -0.00000000	          0.00000000	
          2.63000000	         -1.88168259	         -4.51541524	          0.02664245	         -0.01908656	          0.00000000	         -0.00670349	          0.00000000	          0.00000000	          0.00000000	         -0.00000000	          0.00000000	          0.00000000	          0.00000000	          0.00931255	          0.00000000	          0.00000000	         -0.00000000	          0.00000000	
          2.63500000	         -1.35970640	         -3.22954562	          0.04568463	         -0.01779695	          0.00000000	         -0.00632938	          0.00000000	         -0.00000000	          0.00000000	         -0.00000000	          0.00000000	          0.00000000	          0.00000000	          0.00665850	          0.00000000	          0.00000000	         -0.00000000	          0.00000000	
          2.64000000	         -0.91743685	         -2.14952433	          0.05428291	         -0.01556243	          0.00000000	         -0.00558889	         -0.00000000	         -0.00000000	          0.00000000	         -0.00000000	          0.00000000	          0.00000000	          0.00000000	          0.00442990	          0.00000000	          0.00000000	          0.00000000	          0.00000000	
          2.64500000	         -0.56125979	         -1.28692621	          0.05550369	         -0.01289867	          0.00000000	         -0.00467201	         -0.00000000	         -0.00000000	          0.00000000	         -0.00000000	          0.00000000	          0.00000000	          0.00000000	          0.00265039	          0.00000000	          0.00000000	          0.00000000	          0.00000000	
          2.65000000	         -0.28846148	         -0.63197845	          0.05189689	         -0.01017033	          0.00000000	         -0.00371454	         -0.00000000	         -0.00000000	          0.00000000	         -0.00000000	          0.00000000	          0.00000000	          0.00000000	          0.00129962	          0.00000000	          0.00000000	          0.00000000	          0.00000000	
          2.65500000	         -0.09070739	         -0.16199128	          0.04547950	         -0.00761634	          0.00000000	         -0.00280675	         -0.00000000	         -0.00000000	         -0.00000000	          0.00000000	          0.00000000	         -0.00000000	          0.00000000	          0.00033060	          0.00000000	          0.00000000	          0.00000000	          0.00000000	
          2.66000000	          0.04328233	          0.15221393	          0.03776728	         -0.00537616	          0.00000000	         -0.00200263	         -0.00000000	         -0.00000000	         -0.00000000	          0.00000000	          0.00000000	         -0.00000000	          0.00000000	         -0.00031695	          0.00000000	          0.00000000	          0.00000000	          0.00000000	
